/* XPM */
static char *result[] = {
/* columns rows colors chars-per-pixel */
"32 32 157 2 ",
"   c gray13",
".  c #FF3D00",
"X  c #FF6E40",
"o  c #0288D1",
"O  c #0288D2",
"+  c #0389D2",
"@  c #0389D3",
"#  c #0289D5",
"$  c #058AD5",
"%  c #058AD6",
"&  c #028CD6",
"*  c #028DD7",
"=  c #028DD9",
"-  c #038CDA",
";  c #028EDA",
":  c #048ED9",
">  c #048FDB",
",  c #0B8CDB",
"<  c #0B8DDB",
"1  c #0A8DDE",
"2  c #0B8EDF",
"3  c #0D8DDD",
"4  c #0291DB",
"5  c #0392DF",
"6  c #0791DD",
"7  c #018EE1",
"8  c #018FE3",
"9  c #028FE2",
"0  c #028FE3",
"q  c #0A8FE1",
"w  c #088FE2",
"e  c #0190E5",
"r  c #0193E5",
"t  c #0192E6",
"y  c #0293E6",
"u  c #0393E7",
"i  c #0590E5",
"p  c #0493E7",
"a  c #0A91E0",
"s  c #0B91E0",
"d  c #0B92E1",
"f  c #0091E8",
"g  c #0191E9",
"h  c #0193E9",
"j  c #0091EA",
"k  c #0391EA",
"l  c #0392EB",
"z  c #0492EA",
"x  c #0492EB",
"c  c #0094EC",
"v  c #0095ED",
"b  c #0095EE",
"n  c #0992EA",
"m  c #0A93EB",
"M  c #0993EC",
"N  c #0A93ED",
"B  c #0C93ED",
"V  c #0A96EE",
"C  c #0A97EF",
"Z  c #029DE8",
"A  c #039EE9",
"S  c #029FEA",
"D  c #039FEA",
"F  c #029FEB",
"G  c #0098EE",
"H  c #0099EF",
"J  c #019BEF",
"K  c #019FEE",
"L  c #069FEC",
"P  c #0899EF",
"I  c #1693E8",
"U  c #1694EC",
"Y  c #1697ED",
"T  c #1994EB",
"R  c #1994EC",
"E  c #1995EF",
"W  c #1D95EF",
"Q  c #1996F3",
"!  c #1D96F3",
"~  c #169BF4",
"^  c #1998F0",
"/  c #1999F4",
"(  c #199BF4",
")  c #199AF5",
"_  c #1D99F4",
"`  c #1D9AF5",
"'  c #199CF5",
"]  c #199DF6",
"[  c #2096F3",
"{  c #2196F3",
"}  c #2096F4",
"|  c #2196F4",
" . c #02A1ED",
".. c #01A0EE",
"X. c #01A1EF",
"o. c #03A0EF",
"O. c #01A2EF",
"+. c #08A1EE",
"@. c #01A0F1",
"#. c #02A1F1",
"$. c #01A3F0",
"%. c #01A3F1",
"&. c #02A2F1",
"*. c #02A3F1",
"=. c #01A2F2",
"-. c #05A1F2",
";. c #01A4F2",
":. c #02A4F2",
">. c #03A5F3",
",. c #01A6F2",
"<. c #05A4F3",
"1. c #05A6F3",
"2. c #00A4F4",
"3. c #02A7F4",
"4. c #03A7F4",
"5. c #01A7F6",
"6. c #04A5F4",
"7. c #06A6F4",
"8. c #09A1F1",
"9. c #0AA1F1",
"0. c #08A3F0",
"q. c #0BA2F2",
"w. c #0AA3F2",
"e. c #0BA2F4",
"r. c #0AA3F4",
"t. c #0BA3F4",
"y. c #0DA2F4",
"u. c #0AA4F4",
"i. c #0AA5F4",
"p. c #0CA4F4",
"a. c #02A9F4",
"s. c #03A9F4",
"d. c #01A8F6",
"f. c #05A8F6",
"g. c #05A8F7",
"h. c #00A5F8",
"j. c #00A6F8",
"k. c #00A7F9",
"l. c #04A6F9",
"z. c #09A6F8",
"x. c #08A7F8",
"c. c #0AA7FB",
"v. c #0CA7FB",
"b. c #01ABF8",
"n. c #03A8FA",
"m. c #02ACFB",
"M. c #00ACFC",
"N. c #00ACFD",
"B. c #01ACFD",
"V. c #03ADFD",
"C. c #00AEFE",
"Z. c #00AFFE",
"A. c #01AFFF",
"S. c #04ADFD",
"D. c #08A9FC",
"F. c #0AA9FC",
"G. c #00B0FF",
/* pixels */
"{ { W { _ { s.s.s.f 3 { j o 9 3 8.j j j { B | d ` | v._ { s.s.s.",
"| W W y.3 | | s.x _ | j j j o ..j j s.j @.B s | v.o y.3 | W s.{ ",
"{ { 3 { { t.y.p.{ { j j j j j 8 3 s.s.s.| y.{ v.o # G.| 4.y.i.| ",
"{ 3 { { * ` 3 c.W @.=.j c j f | s.s.s.s.s.y.| # o G.G.G.3 v.( { ",
"| | | o o O.| 3 e 3 c j j o U ^ B s.s.s.| | E ! G.G.G.G.Z.v.| | ",
"| | & o O.# o G.! c.h v K w y.' | | s.W V i | C | G.G.Z._ | y.{ ",
"| W } # o o G.G.G.x d.k U W y r L f.p.| ` | l.s 3 j G.B t.! { [ ",
"3 y.! / o G.G.G.G.b.h.Q s.x #.v.^ W _ 3 y.t.W | h.h.k.L i | s.| ",
"s.| L i a _ G.G.G.j j s.s.s.v.y.| G.| v._ ' | @.j j G j l.s.s.s.",
"s.s.-.c.W j 3 G.j b s.s.s.s.s.y.G.G.G.o v.L ! W j j j { s.s.s.s.",
"s.| _ _ j 5.h.D.V c j s.s.s.{ G.G.G.G.G.,.B 3 s.W @.3 ~ | s.s.s.",
"| _ | @.j j j v -.v.h.{ s.` ' | G.G.G.o o o s.s.s.N 7.` | { s.| ",
"| | e.{ j s.j y.B p -.t.D v.3 { X G.o * o s.s.s.s.s.S C o.g.w.} ",
"{ -.y.{ s.s.s.! y.| ) * t 2.X X X F.R * Y X s.s.s.o o O.{ 2 _ | ",
"{ { { s.s.s.s.s.y.| # O.. . . . . . 6 3.X X | s.* & O.# o G.| v.",
"{ ` ^ W s.s.s.B m E c..   . . . . . . X X L L 0.| o # = G.G.G.{ ",
"{ y.| 3 | s.| _ 3 | B . . . . . . . . X X G.@ x.I u.Z G.G.G.G.G.",
"| v.3 y.r.D { 3 { m 3 G.. . X X . . $ o X G.G.% >.s u y.G.G.Z.B ",
"| | ! { o & o y.L | ` v G.G.G.X X > o G.G.G.G.G.z.f.W ! j G.j ` ",
"{ G.! O.7 * o = 3 z.j j h.G.j C W R * o Z.G.G.O L ! | s.h.d.j c ",
"G.G.G.| O.& o R W ! | N.h.k.G.| *.z.4 o o G.o * 2 ! s.s.s.v @.v.",
"G.G.G.G.j.& n +.M % s | j G.G.G.O.x.: O.,.;.o _ { s.s.s.s.s.q.! ",
"G.G.G.j j @.| 0 3 { B B G.G.G.G.G.<.A $ o * - %.n.` s.s.s.l { ! ",
"| G.j v @.j j s.3 Z o 5 2 G.G.G.o y.+ O s.1  .F _ { j s.j / i B ",
"v.D.| j j j s.s.s.o ,.o % 3 G.& * o | s.s.s.J X.m.5.@.:.v j B { ",
"B ` | v.h.s.s.s.s.s.Z o O.6.;.o o o s.s.s.s.s.g.! | j c j y.Z { ",
"{ { V B P _ s.a.s.o & o _ ^ ` Z O.$._ s.s.s.h.j G.G.V.h.] ; o o ",
"{ { { y.! A i s.{ & o T < y.{ { Z { W { s.j c G.G.G.G.B.O.o o o ",
"{ y.{ _ y.y.y.s.O Z , _ y.{ 3 s., y.y.t.&.j G.G.G.G.G.G.v.7 7 o ",
"s.{ y.{ { { s.s.s.9.1.$ O 3 s.s.s.{ L q / H =.b.G.G.G.{ { { o { ",
"s.s.y.| | s.s.s.s.s.y.| { s.s.s.s.s.#.B S.v.j j G.G.] ` 3 3 , { ",
"s.{ { { _ { s.s.s.{ { { _ | s.s.s.{ | { z g M.C.A.F.| | { { W | "
};
