/* XPM */
static char *result[] = {
/* columns rows colors chars-per-pixel */
"32 32 137 2 ",
"   c gray46",
".  c #0288D1",
"X  c #0288D2",
"o  c #0389D2",
"O  c #0289D5",
"+  c #058AD5",
"@  c #058AD6",
"#  c #028CD6",
"$  c #028DD7",
"%  c #038CDA",
"&  c #028EDA",
"*  c #048ED9",
"=  c #0B8CDB",
"-  c #0B8DDB",
";  c #0A8DDE",
":  c #0B8EDF",
">  c #0D8DDD",
",  c #0291DB",
"<  c #0392DF",
"1  c #018EE1",
"2  c #018FE3",
"3  c #028FE2",
"4  c #028FE3",
"5  c #0A8FE1",
"6  c #088FE2",
"7  c #0190E5",
"8  c #0193E5",
"9  c #0293E6",
"0  c #0393E7",
"q  c #0590E5",
"w  c #0A91E0",
"e  c #0B91E0",
"r  c #0B92E1",
"t  c #0091E8",
"y  c #0191E9",
"u  c #0193E9",
"i  c #0091EA",
"p  c #0391EA",
"a  c #0392EB",
"s  c #0492EA",
"d  c #0492EB",
"f  c #0094EC",
"g  c #0095ED",
"h  c #0095EE",
"j  c #0992EA",
"k  c #0993EC",
"l  c #0A93ED",
"z  c #0C93ED",
"x  c #0A96EE",
"c  c #0A97EF",
"v  c #029DE8",
"b  c #039EE9",
"n  c #029FEA",
"m  c #029FEB",
"M  c #0098EE",
"N  c #0099EF",
"B  c #019BEF",
"V  c #019FEE",
"C  c #069FEC",
"Z  c #0899EF",
"A  c #1694EC",
"S  c #1994EB",
"D  c #1994EC",
"F  c #1995EF",
"G  c #1D95EF",
"H  c #1996F3",
"J  c #1D96F3",
"K  c #169BF4",
"L  c #1998F0",
"P  c #1999F4",
"I  c #199BF4",
"U  c #1D99F4",
"Y  c #1D9AF5",
"T  c #199CF5",
"R  c #199DF6",
"E  c #2096F3",
"W  c #2196F3",
"Q  c #2096F4",
"!  c #2196F4",
"~  c #02A1ED",
"^  c #01A0EE",
"/  c #01A1EF",
"(  c #03A0EF",
")  c #01A2EF",
"_  c #08A1EE",
"`  c #01A0F1",
"'  c #02A1F1",
"]  c #01A3F0",
"[  c #01A3F1",
"{  c #02A2F1",
"}  c #02A3F1",
"|  c #01A2F2",
" . c #05A1F2",
".. c #01A4F2",
"X. c #02A4F2",
"o. c #01A6F2",
"O. c #05A4F3",
"+. c #05A6F3",
"@. c #03A7F4",
"#. c #01A7F6",
"$. c #04A5F4",
"%. c #06A6F4",
"&. c #09A1F1",
"*. c #0AA1F1",
"=. c #0BA2F2",
"-. c #0BA2F4",
";. c #0BA3F4",
":. c #0DA2F4",
">. c #0AA5F4",
",. c #0CA4F4",
"<. c #02A9F4",
"1. c #03A9F4",
"2. c #01A8F6",
"3. c #05A8F6",
"4. c #05A8F7",
"5. c #00A5F8",
"6. c #00A6F8",
"7. c #00A7F9",
"8. c #04A6F9",
"9. c #09A6F8",
"0. c #08A7F8",
"q. c #0AA7FB",
"w. c #0CA7FB",
"e. c #01ABF8",
"r. c #03A8FA",
"t. c #02ACFB",
"y. c #00ACFC",
"u. c #01ACFD",
"i. c #03ADFD",
"p. c #00AEFE",
"a. c #00AFFE",
"s. c #01AFFF",
"d. c #04ADFD",
"f. c #08A9FC",
"g. c #0AA9FC",
"h. c #00B0FF",
"j. c gray62",
/* pixels */
"W W G W U W 1.1.1.t > W i . 3 > &.i i i W z ! r Y ! w.U W 1.1.1.",
"! G G :.> ! ! 1.d U ! i i i . ^ i i 1.i ` z e ! w.. :.> ! G 1.W ",
"W W > W W ;.:.,.W W i i i i i 2 > 1.1.1.! :.W w.. O h.! @.:.>.! ",
"W > W W $ Y > q.G ` | i f i t ! 1.1.1.1.1.:.! O . h.h.h.> w.I W ",
"! ! ! . . ) ! > 7 > f i i . A L z 1.1.1.! ! F J h.h.h.h.a.w.! ! ",
"! ! # . ) O . h.J q.u g V 6 :.T ! ! 1.G x q ! c ! h.h.a.U ! :.W ",
"! G Q O . . h.h.h.d 2.p A G 9 8 C 3.,.! Y ! 8.e > i h.z ;.J W E ",
"> :.J P . h.h.h.h.e.5.H 1.d ' w.L G U > :.;.G ! 5.5.7.C q ! 1.! ",
"1.! C q w U h.h.h.i i 1.1.1.w.:.! h.! w.U T ! ` i i M i 8.1.1.1.",
"1.1. .q.G i > h.i h 1.1.1.1.1.:.h.h.h.. w.C J G i i i W 1.1.1.1.",
"1.! U U i #.5.f.x j.j.j.j.1.W h.h.h.h.h.o.z > 1.G ` > K ! 1.1.j.",
"! U ! ` i i i g j.j.j.j.1.Y T ! h.h.h.. . . 1.1.1.l %.Y ! W j.j.",
"! ! -.W i j.j.j.j.j.j.j.j.j.j.j.j.h.. $ . 1.1.1.1.1.n c ( j.j.j.",
"W  .:.j.j.j.j.j.j.j.j.j.j.j.j.j.j.j.j.j.j.G 1.1.1.. . ) W j.j.j.",
"W W j.j.j.j.j.j.j.j.j.j.j.j.j.j.j.j.j.j.j.j.j.j.j.# ) O j.j.j.j.",
"j.j.j.j.j.j.j.j.j.j.j.j.j.j.j.j.j.j.j.j.j.j.j.j.j.j.j.j.j.j.j.W ",
"j.j.j.j.j.j.j.j.j.j.j.j.        j.j.j.j.j.j.j.j.j.j.j.j.j.j.j.h.",
"! w.j.j.j.j.j.j.j.j.j.j.j.j.j.j.j.j.j.j.j.j.j.j.j.e 0 :.j.j.j.j.",
"! ! J j.j.j.j.j.j.j.j.j.j.j.j.j.j.j.j.j.j.h.h.h.9.3.G J i j.j.j.",
"W h.J ) 1 j.j.j.j.j.j.j.j.j.j.j.j.D $ . a.h.h.X C J ! 1.5.j.j.j.",
"h.h.h.! ) # . D j.j.j.j.5.7.h.! } 9., . . h.. $ : J 1.1.1.g j.j.",
"h.h.h.h.6.# j _ k j.j.j.j.h.h.h.) 0.* ) o.... U W 1.1.1.1.1.=.j.",
"h.h.h.i i ` ! 4 > W z z h.h.h.h.h.O.b + . $ % [ r.Y 1.1.1.a W J ",
"! h.i g ` i i 1.> v . < : h.h.h.. :.o X 1.; ~ m U W i 1.i P q z ",
"w.f.! i i i 1.1.1.. o.. @ > h.# $ . ! 1.1.1.B / t.#.` X.g i z W ",
"z Y ! w.5.1.1.1.1.1.v . ) $.... . . 1.1.1.1.1.4.J ! i f i :.v W ",
"W W x z Z U 1.<.1.. # . U L Y v ) ] U 1.1.1.5.i h.h.i.5.R & . . ",
"W W W :.J b q 1.W # . S - :.W W v W G W 1.i f h.h.h.h.u.) . . . ",
"W :.W U :.:.:.1.X v = U :.W > 1.= :.:.;.{ i h.h.h.h.h.h.w.1 1 . ",
"1.W :.W W W 1.1.1.*.+.+ X > 1.1.1.W C 5 P N | e.h.h.h.W W W . W ",
"1.1.:.! ! 1.1.1.1.1.:.! W 1.1.1.1.1.' z d.w.i i h.h.R Y > > = W ",
"1.W W W U W 1.1.1.W W W U ! 1.1.1.W ! W s y y.p.s.g.! ! W W G ! "
};
