/* XPM */
static char *result[] = {
/* columns rows colors chars-per-pixel */
"32 32 141 2 ",
"   c gray46",
".  c #0288D1",
"X  c #0288D2",
"o  c #0389D2",
"O  c #0289D5",
"+  c #058AD5",
"@  c #058AD6",
"#  c #028CD6",
"$  c #028DD7",
"%  c #028DD9",
"&  c #038CDA",
"*  c #028EDA",
"=  c #048ED9",
"-  c #0B8CDB",
";  c #0B8DDB",
":  c #0A8DDE",
">  c #0B8EDF",
",  c #0D8DDD",
"<  c #0291DB",
"1  c #0392DF",
"2  c #018EE1",
"3  c #018FE3",
"4  c #028FE2",
"5  c #028FE3",
"6  c #0A8FE1",
"7  c #088FE2",
"8  c #0190E5",
"9  c #0193E5",
"0  c #0293E6",
"q  c #0590E5",
"w  c #0493E7",
"e  c #0A91E0",
"r  c #0B91E0",
"t  c #0B92E1",
"y  c #0091E8",
"u  c #0191E9",
"i  c #0193E9",
"p  c #0091EA",
"a  c #0391EA",
"s  c #0392EB",
"d  c #0492EA",
"f  c #0492EB",
"g  c #0094EC",
"h  c #0095ED",
"j  c #0095EE",
"k  c #0992EA",
"l  c #0993EC",
"z  c #0A93ED",
"x  c #0C93ED",
"c  c #0A96EE",
"v  c #0A97EF",
"b  c #029DE8",
"n  c #039EE9",
"m  c #039FEA",
"M  c #029FEB",
"N  c #0098EE",
"B  c #0099EF",
"V  c #019BEF",
"C  c #019FEE",
"Z  c #069FEC",
"A  c #0899EF",
"S  c #1694EC",
"D  c #1994EB",
"F  c #1994EC",
"G  c #1995EF",
"H  c #1D95EF",
"J  c #1996F3",
"K  c #1D96F3",
"L  c #169BF4",
"P  c #1998F0",
"I  c #1999F4",
"U  c #199BF4",
"Y  c #199AF5",
"T  c #1D99F4",
"R  c #1D9AF5",
"E  c #199CF5",
"W  c #199DF6",
"Q  c #2096F3",
"!  c #2196F3",
"~  c #2096F4",
"^  c #2196F4",
"/  c #02A1ED",
"(  c #01A0EE",
")  c #01A1EF",
"_  c #03A0EF",
"`  c #01A2EF",
"'  c #08A1EE",
"]  c #01A0F1",
"[  c #02A1F1",
"{  c #01A3F0",
"}  c #01A3F1",
"|  c #02A2F1",
" . c #02A3F1",
".. c #01A2F2",
"X. c #05A1F2",
"o. c #01A4F2",
"O. c #02A4F2",
"+. c #01A6F2",
"@. c #05A4F3",
"#. c #05A6F3",
"$. c #03A7F4",
"%. c #01A7F6",
"&. c #04A5F4",
"*. c #06A6F4",
"=. c #09A1F1",
"-. c #0AA1F1",
";. c #0BA2F2",
":. c #0AA3F2",
">. c #0AA3F4",
",. c #0BA3F4",
"<. c #0DA2F4",
"1. c #0AA5F4",
"2. c #0CA4F4",
"3. c #02A9F4",
"4. c #03A9F4",
"5. c #01A8F6",
"6. c #05A8F6",
"7. c #05A8F7",
"8. c #00A5F8",
"9. c #00A6F8",
"0. c #00A7F9",
"q. c #04A6F9",
"w. c #09A6F8",
"e. c #08A7F8",
"r. c #0AA7FB",
"t. c #0CA7FB",
"y. c #01ABF8",
"u. c #03A8FA",
"i. c #02ACFB",
"p. c #00ACFC",
"a. c #00ACFD",
"s. c #01ACFD",
"d. c #03ADFD",
"f. c #00AEFE",
"g. c #00AFFE",
"h. c #01AFFF",
"j. c #04ADFD",
"k. c #08A9FC",
"l. c #0AA9FC",
"z. c #00B0FF",
"x. c gray62",
/* pixels */
"! ! H ! T ! 4.4.4.y , ! p . 4 , =.p p p ! x ^ t R ^ t.T ! 4.4.4.",
"^ H H <., ^ ^ 4.f T ^ p p p . ( p p 4.p ] x r ^ t.. <., ^ H 4.! ",
"! ! , ! ! ,.<.2.! ! p p p p p 3 , 4.4.4.^ <.! t.. O z.^ $.<.1.^ ",
"! , ! ! $ R , r.H ] ..p g p y ^ 4.4.4.4.4.<.^ O . z.z.z., t.U ! ",
"^ ^ ^ . . ` ^ , 8 , g p p . S P x 4.4.4.^ ^ G K z.z.z.z.g.t.^ ^ ",
"^ ^ # . ` O . z.K r.i h C 7 <.E ^ ^ 4.H c q ^ v ^ z.z.g.T ^ <.! ",
"^ H ~ O . . z.z.z.f 5.a S H 0 9 Z 6.2.^ R ^ q.r , p z.x ,.K ! Q ",
", <.K I . z.z.z.z.y.8.J 4.f [ t.P H T , <.,.H ^ 8.8.0.Z q ^ 4.^ ",
"4.^ Z q e T z.z.z.p p 4.4.4.t.<.^ z.^ t.T E ^ ] p p N p q.4.4.4.",
"4.4.X.r.H p , z.p j 4.4.4.4.4.<.z.z.z.. t.Z K H p p p ! 4.4.4.4.",
"x.^ T T p %.8.k.c g p 4.4.4.! z.z.z.z.x.x.x.x.4.H ] , L ^ 4.4.4.",
"x.x.^ ] p p p h X.t.8.! 4.R E ^ z.z.z.. x.x.x.x.4.z *.R ^ ! 4.^ ",
"x.x.x.! p 4.p <.x w X.,.m t., x.x.x.x.x.x.x.x.x.x.x.x.v _ 7.:.~ ",
"x.x.x.! 4.4.4.K <.^ Y x.x.x.x.x.x.x.x.x.x.x.x.x.x.x.x.x.x.> T ^ ",
"x.x.x.x.4.4.4.x.x.x.x.x.x.x.x.x.x.x.x.x.x.x.x.x.x.x.x.x.x.x.^ t.",
"! x.x.x.x.x.x.x.x.x.x.x.x.x.x.x.x.x.x.x.x.x.x.x.x.x.x.x.x.x.x.x.",
"! x.x.x.x.x.x.x.x.x.x.x.x.x.x.x.        x.x.x.x.x.x.x.x.x.x.x.x.",
"x.x.x.x.>.m ! x.x.x.x.x.x.x.x.x.x.x.x.x.x.x.x.x.x.x.x.x.x.x.g.x ",
"x.x.x.! . # . <.Z ^ R x.x.x.x.x.x.x.x.x.x.x.x.x.x.x.x.x.x.z.p R ",
"x.x.x.` 2 $ . % , w.p p 8.z.p x.x.x.x.x.x.x.x.x.x.x.x.4.8.5.p g ",
"x.x.z.^ ` # . F H K ^ a.8.0.z.^  .w.< . x.x.x.x.> K 4.4.4.h ] t.",
"x.z.z.z.9.# k ' l @ r ^ p z.z.z.` e.= x.x.x.x.T ! 4.4.4.4.4.;.K ",
"z.z.z.p p ] ^ 5 , ! x x z.z.z.z.z.@.n + . $ & } u.R 4.4.4.s ! K ",
"^ z.p h ] p p 4., b . 1 > z.z.z.. <.o X 4.: / M T ! p 4.p I q x ",
"t.k.^ p p p 4.4.4.. +.. @ , z.# $ . ^ 4.4.4.V ) i.%.] O.h p x ! ",
"x R ^ t.8.4.4.4.4.4.b . ` &.o.. . . 4.4.4.4.4.7.K ^ p g p <.b ! ",
"! ! c x A T 4.3.4.. # . T P R b ` { T 4.4.4.8.p z.z.d.8.W * . . ",
"! ! ! <.K n q 4.! # . D ; <.! ! b ! H ! 4.p g z.z.z.z.s.` . . . ",
"! <.! T <.<.<.4.X b - T <.! , 4.- <.<.,.| p z.z.z.z.z.z.t.2 2 . ",
"4.! <.! ! ! 4.4.4.-.#.+ X , 4.4.4.! Z 6 I B ..y.z.z.z.! ! ! . ! ",
"4.4.<.^ ^ 4.4.4.4.4.<.^ ! 4.4.4.4.4.[ x j.t.p p z.z.W R , , - ! ",
"4.! ! ! T ! 4.4.4.! ! ! T ^ 4.4.4.! ^ ! d u p.f.h.l.^ ^ ! ! H ^ "
};
