/* XPM */
static char *result[] = {
/* columns rows colors chars-per-pixel */
"32 32 141 2 ",
"   c gray46",
".  c #0288D1",
"X  c #0288D2",
"o  c #0389D3",
"O  c #0289D5",
"+  c #058AD5",
"@  c #058AD6",
"#  c #028CD6",
"$  c #028DD7",
"%  c #028DD9",
"&  c #038CDA",
"*  c #028EDA",
"=  c #0B8CDB",
"-  c #0B8DDB",
";  c #0A8DDE",
":  c #0B8EDF",
">  c #0D8DDD",
",  c #018EE1",
"<  c #028FE3",
"1  c #0A8FE1",
"2  c #088FE2",
"3  c #0190E5",
"4  c #0192E6",
"5  c #0293E6",
"6  c #0393E7",
"7  c #0590E5",
"8  c #0493E7",
"9  c #0A91E0",
"0  c #0B91E0",
"q  c #0B92E1",
"w  c #0091E8",
"e  c #0191E9",
"r  c #0193E9",
"t  c #0091EA",
"y  c #0391EA",
"u  c #0392EB",
"i  c #0492EA",
"p  c #0492EB",
"a  c #0094EC",
"s  c #0095ED",
"d  c #0095EE",
"f  c #0992EA",
"g  c #0A93EB",
"h  c #0993EC",
"j  c #0A93ED",
"k  c #0C93ED",
"l  c #0A96EE",
"z  c #0A97EF",
"x  c #029DE8",
"c  c #039EE9",
"v  c #029FEA",
"b  c #039FEA",
"n  c #029FEB",
"m  c #0098EE",
"M  c #0099EF",
"N  c #019BEF",
"B  c #019FEE",
"V  c #069FEC",
"C  c #0899EF",
"Z  c #1693E8",
"A  c #1694EC",
"S  c #1697ED",
"D  c #1994EB",
"F  c #1994EC",
"G  c #1995EF",
"H  c #1D95EF",
"J  c #1996F3",
"K  c #1D96F3",
"L  c #169BF4",
"P  c #1998F0",
"I  c #1999F4",
"U  c #199BF4",
"Y  c #199AF5",
"T  c #1D99F4",
"R  c #1D9AF5",
"E  c #199CF5",
"W  c #199DF6",
"Q  c #2096F3",
"!  c #2196F3",
"~  c #2096F4",
"^  c #2196F4",
"/  c #02A1ED",
"(  c #01A1EF",
")  c #03A0EF",
"_  c #01A2EF",
"`  c #08A1EE",
"'  c #01A0F1",
"]  c #02A1F1",
"[  c #01A3F0",
"{  c #01A3F1",
"}  c #02A2F1",
"|  c #01A2F2",
" . c #05A1F2",
".. c #02A4F2",
"X. c #03A5F3",
"o. c #01A6F2",
"O. c #05A6F3",
"+. c #02A7F4",
"@. c #03A7F4",
"#. c #01A7F6",
"$. c #06A6F4",
"%. c #09A1F1",
"&. c #0AA1F1",
"*. c #08A3F0",
"=. c #0BA2F2",
"-. c #0AA3F2",
";. c #0BA2F4",
":. c #0AA3F4",
">. c #0BA3F4",
",. c #0DA2F4",
"<. c #0AA4F4",
"1. c #0AA5F4",
"2. c #0CA4F4",
"3. c #02A9F4",
"4. c #03A9F4",
"5. c #01A8F6",
"6. c #05A8F6",
"7. c #05A8F7",
"8. c #00A5F8",
"9. c #00A6F8",
"0. c #00A7F9",
"q. c #04A6F9",
"w. c #09A6F8",
"e. c #08A7F8",
"r. c #0AA7F9",
"t. c #0AA7FB",
"y. c #0CA7FB",
"u. c #01ABF8",
"i. c #03A8FA",
"p. c #02ACFB",
"a. c #00ACFC",
"s. c #01ACFD",
"d. c #03ADFD",
"f. c #00AEFE",
"g. c #00AFFE",
"h. c #01AFFF",
"j. c #04ADFD",
"k. c #08A9FC",
"l. c #0AA9FC",
"z. c #00B0FF",
"x. c gray62",
/* pixels */
"! ! H ! T ! 4.4.4.w x.x.x.x.x.> %.x.x.x.x.x.^ q R ^ y.T ! 4.4.4.",
"^ H H ,.> ^ ^ 4.p T ^ x.x.x.x.x.x.x.x.x.x.k 0 ^ y.. ,.> ^ H 4.! ",
"! ! > ! ! >.,.2.! ! t t x.x.x.x.x.x.x.x.^ ,.! y.. O z.^ @.,.1.^ ",
"! > ! ! $ R > t.H ' | t a t x.x.x.x.4.4.4.,.^ O . z.z.z.> y.U ! ",
"^ ^ ^ . . _ ^ > 3 > a t t . A x.x.4.4.4.^ ^ G K z.z.z.z.g.y.^ ^ ",
"^ ^ # . _ O . z.K t.r s B 2 ,.x.x.^ 4.H l 7 ^ z ^ z.z.g.T ^ ,.! ",
"^ H ~ O . . z.z.z.p 5.y A H 5 x.x.6.2.^ R ^ q.0 > t z.k >.K ! Q ",
"> ,.K I . z.z.z.z.u.8.J 4.p x.x.x.x.T > ,.>.H ^ 8.8.0.V 7 ^ 4.^ ",
"4.^ V 7 9 T z.z.z.t t 4.4.4.x.x.x.x.^ y.T E ^ ' t t m t q.4.4.4.",
"4.4. .t.H t > z.t d 4.4.4.4.x.x.x.x.z.. y.V K H t t t ! 4.4.4.4.",
"4.^ T T t #.8.k.l a t 4.4.4.x.x.x.x.z.z.o.k > 4.H ' > L ^ 4.4.4.",
"^ T ^ ' t t t s  .y.8.! 4.x.x.x.x.x.x.. . . 4.4.4.j $.R ^ ! 4.^ ",
"^ ^ ;.! t 4.t ,.k 8  .>.b x.x.x.x.x.x.$ . 4.4.4.4.4.v z ) 7.-.~ ",
"!  .,.! 4.4.4.K ,.^ Y $ 4 x.x.x.x.x.x.$ S H 4.4.4.. . _ ! : T ^ ",
"! ! ! 4.4.4.4.4.,.^ O _ . x.x.x.x.x.x.+.[ r.^ 4.$ # _ O . z.^ y.",
"! R P H 4.4.4.k g G t.. x.x.x.x.x.x.x.x.@ V V *.^ . O % z.z.z.! ",
"! ,.^ > ^ 4.^ T > ^ k ! x.x.x.x.  x.x.x.. z.o e.Z <.x z.z.z.z.z.",
"^ y.> ,.:.b ! > ! g > z.x.x.x.x.  x.x.x.z.z.z.@ X.0 6 ,.z.z.g.k ",
"^ ^ K ! . # . ,.V ^ R s x.x.x.x.  x.x.x.z.z.z.z.w.6.H K t z.t R ",
"! z.K _ , $ . % > w.x.t x.x.x.x.  x.x.x.g.x.z.X V K ^ 4.8.5.t a ",
"z.z.z.^ _ # . F H K x.x.x.x.x.x.x.x.x.x.x.x.. $ : K 4.4.4.s ' y.",
"z.z.z.z.9.# f ` h @ x.x.x.x.x.x.x.x.x.x.x.x.. T ! 4.4.4.4.4.=.K ",
"z.z.z.t t ' ^ < > ! x.x.x.x.x.x.x.x.x.x.x.x.& { i.R 4.4.4.u ! K ",
"^ z.t s ' t t 4.> x . x.x.x.x.x.x.x.x.x.x.; / n T ! t 4.t I 7 k ",
"y.k.^ t t t 4.4.4.. o.. x.x.x.x.x.x.x.x.4.4.N ( p.#.' ..s t k ! ",
"k R ^ y.8.4.4.4.4.4.x . x.x.x.x.x.x.x.x.4.4.4.7.K ^ t a t ,.x ! ",
"! ! l k C T 4.3.4.. # . x.x.x.x.x.x.x.x.4.4.8.t z.z.d.8.W * . . ",
"! ! ! ,.K c 7 4.! # . D - x.x.x.x.x.x.! 4.t a z.z.z.z.s._ . . . ",
"! ,.! T ,.,.,.4.X x = T ,.x.x.x.x.x.x.>.} t z.z.z.z.z.z.y., , . ",
"4.! ,.! ! ! 4.4.4.&.O.+ X > x.x.x.x.V 1 I M | u.z.z.z.! ! ! . ! ",
"4.4.,.^ ^ 4.4.4.4.4.,.^ ! 4.4.x.x.4.] k j.y.t t z.z.W R > > = ! ",
"4.! ! ! T ! 4.4.4.! ! ! T ^ 4.x.x.! ^ ! i e a.f.h.l.^ ^ ! ! H ^ "
};
