/* XPM */
static char *result[] = {
/* columns rows colors chars-per-pixel */
"32 32 136 2 ",
"   c gray46",
".  c #0288D1",
"X  c #0288D2",
"o  c #0389D2",
"O  c #0389D3",
"+  c #0289D5",
"@  c #058AD5",
"#  c #058AD6",
"$  c #028CD6",
"%  c #028DD7",
"&  c #028DD9",
"*  c #038CDA",
"=  c #028EDA",
"-  c #048ED9",
";  c #0B8CDB",
":  c #0B8DDB",
">  c #0A8DDE",
",  c #0B8EDF",
"<  c #0D8DDD",
"1  c #0392DF",
"2  c #018EE1",
"3  c #028FE2",
"4  c #028FE3",
"5  c #0190E5",
"6  c #0393E7",
"7  c #0590E5",
"8  c #0493E7",
"9  c #0A91E0",
"0  c #0B91E0",
"q  c #0B92E1",
"w  c #0091E8",
"e  c #0193E9",
"r  c #0091EA",
"t  c #0391EA",
"y  c #0392EB",
"u  c #0492EB",
"i  c #0094EC",
"p  c #0095ED",
"a  c #0095EE",
"s  c #0992EA",
"d  c #0A93EB",
"f  c #0993EC",
"g  c #0A93ED",
"h  c #0C93ED",
"j  c #0A96EE",
"k  c #0A97EF",
"l  c #029DE8",
"z  c #039EE9",
"x  c #029FEA",
"c  c #039FEA",
"v  c #029FEB",
"b  c #0098EE",
"n  c #0099EF",
"m  c #019BEF",
"M  c #069FEC",
"N  c #0899EF",
"B  c #1693E8",
"V  c #1697ED",
"C  c #1994EB",
"Z  c #1994EC",
"A  c #1995EF",
"S  c #1D95EF",
"D  c #1996F3",
"F  c #1D96F3",
"G  c #169BF4",
"H  c #1998F0",
"J  c #1999F4",
"K  c #199BF4",
"L  c #199AF5",
"P  c #1D99F4",
"I  c #1D9AF5",
"U  c #199CF5",
"Y  c #199DF6",
"T  c #2096F3",
"R  c #2196F3",
"E  c #2096F4",
"W  c #2196F4",
"Q  c #02A1ED",
"!  c #01A1EF",
"~  c #03A0EF",
"^  c #01A2EF",
"/  c #08A1EE",
"(  c #01A0F1",
")  c #01A3F0",
"_  c #01A3F1",
"`  c #02A2F1",
"'  c #01A2F2",
"]  c #05A1F2",
"[  c #01A4F2",
"{  c #02A4F2",
"}  c #03A5F3",
"|  c #01A6F2",
" . c #05A6F3",
".. c #03A7F4",
"X. c #01A7F6",
"o. c #04A5F4",
"O. c #06A6F4",
"+. c #0AA1F1",
"@. c #08A3F0",
"#. c #0BA2F2",
"$. c #0AA3F2",
"%. c #0BA2F4",
"&. c #0AA3F4",
"*. c #0BA3F4",
"=. c #0DA2F4",
"-. c #0AA4F4",
";. c #0AA5F4",
":. c #0CA4F4",
">. c #02A9F4",
",. c #03A9F4",
"<. c #01A8F6",
"1. c #05A8F6",
"2. c #05A8F7",
"3. c #00A5F8",
"4. c #00A6F8",
"5. c #00A7F9",
"6. c #04A6F9",
"7. c #09A6F8",
"8. c #08A7F8",
"9. c #0AA7F9",
"0. c #0AA7FB",
"q. c #0CA7FB",
"w. c #01ABF8",
"e. c #03A8FA",
"r. c #02ACFB",
"t. c #00ACFC",
"y. c #00ACFD",
"u. c #01ACFD",
"i. c #03ADFD",
"p. c #00AEFE",
"a. c #00AFFE",
"s. c #01AFFF",
"d. c #08A9FC",
"f. c #0AA9FC",
"g. c #00B0FF",
"h. c gray62",
/* pixels */
"R R S R P R ,.,.,.w < R r . 3 h.h.r r r R h W q I W q.P R ,.,.,.",
"W S S =.< W W ,.u P W r r r . h.h.r ,.r ( h 0 W q.. =.< W S ,.R ",
"R R < R R *.=.:.R R r r r r h.h.h.h.,.,.W =.R q.. + g.W ..=.;.W ",
"R < R R % I < 0.S ( ' r i h.h.h.h.h.h.,.,.=.W + . g.g.g.< q.K R ",
"W W W . . ^ W < 5 < i r r h.h.h.h.h.h.,.W W A F g.g.g.g.a.q.W W ",
"W W $ . ^ + . g.F 0.e p h.h.h.h.h.h.h.h.j 7 W k W g.g.a.P W =.R ",
"W S E + . . g.g.g.u <.t h.h.h.h.h.h.h.h.I W 6.0 < r g.h *.F R T ",
"< =.F J . g.g.g.g.w.3.D h.h.h.h.h.h.h.h.=.*.S W 3.3.5.M 7 W ,.W ",
",.W M 7 9 P g.g.g.r r h.h.h.h.h.h.h.h.h.h.U W ( r r b r 6.,.,.,.",
",.,.] 0.S r < g.r a h.h.h.h.h.h.h.h.h.h.h.h.F S r r r R ,.,.,.,.",
",.W P P r X.3.d.j i h.h.h.h.h.h.h.h.h.h.h.h.< ,.S ( < G W ,.,.,.",
"W P W ( r r r p ] q.h.h.h.h.h.h.h.h.h.h.h.h.,.,.,.g O.I W R ,.W ",
"W W %.R r ,.r =.h 8 h.*.h.h.h.h.  h.h.h.. h.,.,.,.,.x k ~ 2.$.E ",
"R ] =.R ,.,.,.F =.W L % h.h.h.h.  h.h.h.V S ,.,.,.. . ^ R , P W ",
"R R R ,.,.,.,.,.=.W + ^ h.h.h.h.  h.h.h.) 9.W ,.% $ ^ + . g.W q.",
"R I H S ,.,.,.h d A 0.. h.h.h.h.  h.h.h.# M M @.W . + & g.g.g.R ",
"R =.W < W ,.W P < W h R h.h.h.h.h.h.h.h.. g.O 8.B -.l g.g.g.g.g.",
"W q.< =.&.c R < R d < g.g.h.h.h.h.h.h.. g.g.g.# } 0 6 =.g.g.a.h ",
"W W F R . $ . =.M W I p g.h.h.h.h.h.h.g.g.g.g.g.7.1.S F r g.r I ",
"R g.F ^ 2 % . & < 7.r r 3.h.h.h.h.h.h.. a.g.g.X M F W ,.3.<.r i ",
"g.g.g.W ^ $ . Z S F W y.3.h.h.h.h.h.h.. . g.. % , F ,.,.,.p ( q.",
"g.g.g.g.4.$ s / f # 0 W r g.h.h.h.h.- ^ | [ . P R ,.,.,.,.,.#.F ",
"g.g.g.r r ( W 4 < R h h g.g.h.h.h.h.z @ . % * _ e.I ,.,.,.y R F ",
"W g.r p ( r r ,.< l . 1 , g.h.h.h.h.o X ,.> Q v P R r ,.r J 7 h ",
"q.d.W r r r ,.,.,.. | . # < h.h.h.h.W ,.,.,.m ! r.X.( { p r h R ",
"h I W q.3.,.,.,.,.,.l . ^ o.[ h.h.. ,.,.,.,.,.2.F W r i r =.l R ",
"R R j h N P ,.>.,.. $ . P H I h.h.) P ,.,.,.3.r g.g.i.3.Y = . . ",
"R R R =.F z 7 ,.R $ . C : =.R h.h.R S R ,.r i g.g.g.g.u.^ . . . ",
"R =.R P =.=.=.,.X l ; P =.R h.h.h.h.=.*.` r g.g.g.g.g.g.q.2 2 . ",
",.R =.R R R ,.,.,.+. .@ h.h.h.h.h.h.h.h.J n ' w.g.g.g.R R R . R ",
",.,.=.W W ,.,.,.,.,.=.h.h.h.h.h.h.h.h.h.h.q.r r g.g.Y I < < ; R ",
",.R R R P R ,.,.,.R h.h.h.h.h.,.,.h.h.h.h.h.t.p.s.f.W W R R S W "
};
