/* XPM */
static char *result[] = {
/* columns rows colors chars-per-pixel */
"32 32 107 2 ",
"   c #1A237E",
".  c #0D47A1",
"X  c #1565C0",
"o  c #0288D1",
"O  c #0288D2",
"+  c #0289D5",
"@  c #058AD5",
"#  c #028CD6",
"$  c #028DD7",
"%  c #028DD9",
"&  c #028EDA",
"*  c #0B8CDB",
"=  c #0B8DDB",
"-  c #0B8EDF",
";  c #0D8DDD",
":  c #018EE1",
">  c #018FE3",
",  c #028FE2",
"<  c #0A8FE1",
"1  c #0190E5",
"2  c #0590E5",
"3  c #0A91E0",
"4  c #0B91E0",
"5  c #0B92E1",
"6  c #0091E8",
"7  c #0191E9",
"8  c #0193E9",
"9  c #0091EA",
"0  c #0392EB",
"q  c #0492EA",
"w  c #0492EB",
"e  c #0094EC",
"r  c #0095ED",
"t  c #0C93ED",
"y  c #0A96EE",
"u  c #0A97EF",
"i  c #029DE8",
"p  c #039EE9",
"a  c #0098EE",
"s  c #0099EF",
"d  c #069FEC",
"f  c #0899EF",
"g  c #1694EC",
"h  c #1994EB",
"j  c #1995EF",
"k  c #1D95EF",
"l  c #1D96F3",
"z  c #169BF4",
"x  c #1998F0",
"c  c #1999F4",
"v  c #199BF4",
"b  c #1D99F4",
"n  c #1D9AF5",
"m  c #199DF6",
"M  c #2096F3",
"N  c #2196F3",
"B  c #2096F4",
"V  c #2196F4",
"C  c #01A0EE",
"Z  c #01A1EF",
"A  c #03A0EF",
"S  c #01A2EF",
"D  c #01A0F1",
"F  c #02A1F1",
"G  c #02A2F1",
"H  c #01A2F2",
"J  c #05A1F2",
"K  c #02A4F2",
"L  c #05A6F3",
"P  c #03A7F4",
"I  c #01A7F6",
"U  c #06A6F4",
"Y  c #09A1F1",
"T  c #0AA1F1",
"R  c #0BA2F2",
"E  c #0AA3F2",
"W  c #0BA2F4",
"Q  c #0AA3F4",
"!  c #0BA3F4",
"~  c #0DA2F4",
"^  c #0AA5F4",
"/  c #0CA4F4",
"(  c #02A9F4",
")  c #03A9F4",
"_  c #01A8F6",
"`  c #05A8F7",
"'  c #00A5F8",
"]  c #00A6F8",
"[  c #00A7F9",
"{  c #04A6F9",
"}  c #0AA7FB",
"|  c #0CA7FB",
" . c #01ABF8",
".. c #02ACFB",
"X. c #00ACFC",
"o. c #01ACFD",
"O. c #03ADFD",
"+. c #00AEFE",
"@. c #00AFFE",
"#. c #01AFFF",
"$. c #04ADFD",
"%. c #08A9FC",
"&. c #0AA9FC",
"*. c #00B0FF",
"=. c #4FC3F7",
"-. c #81D4FA",
";. c #B3E5FC",
/* pixels */
"N N k N b N ) ) ) 6 ; N 9 o , ; Y 9 9 9 N t V 5 n V | b N ) ) ) ",
"V k k ~ ; V V ) w b V 9 9 9 o C 9 9 ) 9 D t 4 V | o ~ ; V k ) N ",
"N N ; N N ! ~ / N N 9 9 9 9 9 > ; ) ) ) V ~ N | o + *.V P ~ ^ V ",
"N ; N N $ n ; } k D H 9 e 9 6 V ) ) ) ) ) ~ V + o *.*.*.; | v N ",
"V V V o o S V ; 1 ; e 9 9 o g x t ) ) ) V V j l *.*.*.*.@.| V V ",
"V V # o S + o *.l } 8 r =.=.=.=.=.=.=.=.y 2 V u V *.*.@.b V ~ N ",
"V k B + o o *.*.*.w -.-.-.-.-.-.-.-.-.-.-.-.{ 4 ; 9 *.t ! l N M ",
"; ~ l c o *.*.*.*.-.-.;.;.;.;.;.;.;.;.;.;.-.-.V ' ' [ d 2 V ) V ",
") V d 2 3 b *.*.-.-.;.;.-.-.-.-.-.-.-.-.;.;.-.-.9 9 a 9 { ) ) ) ",
") ) J } k 9 ; -.-.;.;.-.-.X X X X X X -.-.;.;.-.-.9 9 N ) ) ) ) ",
") V b b 9 I -.-.;.;.-.-.X . . . . . . X -.-.;.;.-.-.; z V ) ) ) ",
"V b V D 9 9 -.;.;.-.-.X .             . X -.-.;.;.-.U n V N ) V ",
"V V W N 9 =.-.;.-.-.X .                 . X -.-.;.-.=.u A ` E B ",
"N J ~ N ) =.-.;.-.X .                     . X -.;.-.=.S N - b V ",
"N N N ) ) =.-.;.-.X .                     . X -.;.-.=.+ o *.V | ",
"N n x k ) =.-.;.-.X .                     . X -.;.-.=.% *.*.*.N ",
"N ~ V ; V =.-.;.-.X .                     . X -.;.-.=.*.*.*.*.*.",
"V | ; ~ Q =.-.;.-.X .                     . X -.;.-.=.~ *.*.@.t ",
"V V l N o =.-.;.-.X .                     . X -.;.-.=.l 9 *.9 n ",
"N *.l S : =.-.;.-.-.X .                 . X -.-.;.-.=.) ' _ 9 e ",
"*.*.*.V S # -.;.;.-.-.X .             . X -.-.;.;.-.) ) ) r D | ",
"*.*.*.*.] # -.-.;.;.-.-.X . . . . . . X -.-.;.;.-.-.) ) ) ) R l ",
"*.*.*.9 9 D V -.-.;.;.-.-.X X X X X X -.-.;.;.-.-.n ) ) ) 0 N l ",
"V *.9 r D 9 9 ) -.-.;.;.-.-.-.-.-.-.-.-.;.;.-.-.b N 9 ) 9 c 2 t ",
"| %.V 9 9 9 ) ) ) -.-.;.;.;.;.;.;.;.;.;.;.-.-.Z ..I D K r 9 t N ",
"t n V | ' ) ) ) ) ) -.-.-.-.-.-.-.-.-.-.-.-.) ` l V 9 e 9 ~ i N ",
"N N y t f b ) ( ) o # o =.=.=.=.=.=.=.=.) ) ' 9 *.*.O.' m & o o ",
"N N N ~ l p 2 ) N # o h = ~ N N i N k N ) 9 e *.*.*.*.o.S o o o ",
"N ~ N b ~ ~ ~ ) O i * b ~ N ; ) * ~ ~ ! G 9 *.*.*.*.*.*.| : : o ",
") N ~ N N N ) ) ) T L @ O ; ) ) ) N d < c s H  .*.*.*.N N N o N ",
") ) ~ V V ) ) ) ) ) ~ V N ) ) ) ) ) F t $.| 9 9 *.*.m n ; ; * N ",
") N N N b N ) ) ) N N N b V ) ) ) N V N q 7 X.+.#.&.V V N N k V "
};
