/* XPM */
static char *result[] = {
/* columns rows colors chars-per-pixel */
"32 32 38 1 ",
"  c gray26",
". c gray27",
"X c #484848",
"o c gray29",
"O c #4B4B4B",
"+ c gray31",
"@ c gray32",
"# c gray33",
"$ c #555555",
"% c #565656",
"& c gray34",
"* c gray35",
"= c #5A5A5A",
"- c #5B5B5B",
"; c gray36",
": c gray37",
"> c #5F5F5F",
", c #606060",
"< c gray38",
"1 c #626262",
"2 c gray39",
"3 c #646464",
"4 c #656565",
"5 c gray40",
"6 c #676767",
"7 c DimGray",
"8 c #6A6A6A",
"9 c gray42",
"0 c #6C6C6C",
"q c #6D6D6D",
"w c gray43",
"e c #6F6F6F",
"r c gray44",
"t c #717171",
"y c #727272",
"u c gray45",
"i c #747474",
"p c gray46",
/* pixels */
"p  31   ...$ .ppp1 wy1$$   ppppp",
"    .ppp1$$ ppppp1 . ppppq<2<<<$",
"ppp4*pip1X <<<p$     ppppw27< Xp",
"pppippip1X <<<p <<<ppppppw27< Xp",
"ppp71i   <<<qw0 <<<$ pp <17$&  p",
"p   <pppp1X2X6<<2<<% pp <  ppp1p",
"p .1qeppp1@6@y  6..ryuq$&  ppp1p",
"6.,<ppppp7;06q  4.X=O*2 .ppppp1 ",
"..$ <.p   .qqppp8$%OO*1 XO.p  . ",
"$$  < p...$  pppy  ,qq$ ooop  o<",
"< <<q85...%pppppu  ><<pppr8w  X<",
"< 2227 .=%$pppppt<<122ipp0;<<<$<",
"<<2227 .O.<<<p;;$  2ppipp4$<<,><",
"< <11   $$<qqp$$2<<,1qp..,,<<,><",
". <  pppq<<ttuXXq<<2 <pppw<<<<; ",
";$*. ppp1 <<<=22q<<278pppy<<4%  ",
"$ Xpppppq<<>>:qq<<<$ppiiii,,5;  ",
"     p  $$,#+>$ ppp1XXpwyq,,2;  ",
"<<<$ p  XX19;;1;ppp5;;p33pppt   ",
"<<<720  =*-9>,ppppp69q5Xopppi4<4",
"<<2%.$  .11  <<<p$;>;$ ppiiiuy<7",
"2X1$$X     pppq,p$ %,<<pppuuuu<4",
"2X1  2<<$  ppptqe$ .<<<<>pwuiipq",
"p1   <,<$pppppq$  <<2<<ttp 1ippp",
"p pppq,<$. p;<< <222q<<w70pppppp",
"p pppq$ XOXi>>- <22*q<.O.$pppppp",
"pppppq  X33e  2<<<qq,< $$  pppip",
"  p$$&<<<71     <  $ppp1 <ttpp1 ",
"  p   <<<$ ppp1 <   ppp1 <tiii  ",
"p15 <<<<<$ ppp7$& pppppq<<<q75pp",
"p     <  ppppp1     p    < p  pp",
"p  pp <    p  ppp <<p<<  < ppppp"
};
