/* XPM */
static char *result[] = {
/* columns rows colors chars-per-pixel */
"32 32 161 2 ",
"   c #0288D1",
".  c #0288D2",
"X  c #0389D2",
"o  c #0389D3",
"O  c #038BD3",
"+  c #0289D5",
"@  c #048AD4",
"#  c #058AD5",
"$  c #058AD6",
"%  c #028CD6",
"&  c #028DD7",
"*  c #028DD9",
"=  c #038CDA",
"-  c #028EDA",
";  c #048ED9",
":  c #048FDB",
">  c #0B8CDB",
",  c #0B8DDB",
"<  c #0A8DDE",
"1  c #0B8EDF",
"2  c #0D8DDD",
"3  c #0291DB",
"4  c #0392DF",
"5  c #0791DD",
"6  c #0991DF",
"7  c #018EE1",
"8  c #018FE3",
"9  c #028FE2",
"0  c #028FE3",
"q  c #0A8FE1",
"w  c #088FE2",
"e  c #0190E5",
"r  c #0193E5",
"t  c #0192E6",
"y  c #0293E6",
"u  c #0393E7",
"i  c #0590E5",
"p  c #0493E7",
"a  c #0A91E0",
"s  c #0B91E0",
"d  c #0B92E1",
"f  c #0091E8",
"g  c #0191E9",
"h  c #0193E9",
"j  c #0091EA",
"k  c #0391EA",
"l  c #0392EB",
"z  c #0492EA",
"x  c #0492EB",
"c  c #0094EC",
"v  c #0095ED",
"b  c #0095EE",
"n  c #0992EA",
"m  c #0A93EB",
"M  c #0993EC",
"N  c #0A93ED",
"B  c #0C93ED",
"V  c #0A96EE",
"C  c #0A97EF",
"Z  c #029DE8",
"A  c #039EE9",
"S  c #029FEA",
"D  c #039FEA",
"F  c #029FEB",
"G  c #0098EE",
"H  c #0099EF",
"J  c #019BEF",
"K  c #019FEE",
"L  c #069FEC",
"P  c #0899EF",
"I  c #1693E8",
"U  c #1694EC",
"Y  c #1697ED",
"T  c #1994EB",
"R  c #1994EC",
"E  c #1995EF",
"W  c #1D95EF",
"Q  c #1698EE",
"!  c #1996F3",
"~  c #1D96F3",
"^  c #169BF4",
"/  c #1998F0",
"(  c #1999F4",
")  c #199BF4",
"_  c #199AF5",
"`  c #1D99F4",
"'  c #1D9AF5",
"]  c #199CF5",
"[  c #199DF6",
"{  c #2096F3",
"}  c #2196F3",
"|  c #2096F4",
" . c #2196F4",
".. c #02A1ED",
"X. c #01A0EE",
"o. c #01A1EF",
"O. c #03A0EF",
"+. c #01A2EF",
"@. c #08A1EE",
"#. c #01A0F1",
"$. c #02A1F1",
"%. c #01A3F0",
"&. c #01A3F1",
"*. c #02A2F1",
"=. c #02A3F1",
"-. c #01A2F2",
";. c #05A1F2",
":. c #01A4F2",
">. c #02A4F2",
",. c #03A5F3",
"<. c #01A6F2",
"1. c #02A7F3",
"2. c #05A4F3",
"3. c #05A6F3",
"4. c #00A4F4",
"5. c #02A7F4",
"6. c #03A7F4",
"7. c #01A7F6",
"8. c #04A5F4",
"9. c #06A6F4",
"0. c #09A1F1",
"q. c #0AA1F1",
"w. c #08A3F0",
"e. c #0BA2F2",
"r. c #0AA3F2",
"t. c #0BA2F4",
"y. c #0AA3F4",
"u. c #0BA3F4",
"i. c #0DA2F4",
"p. c #0AA4F4",
"a. c #0AA5F4",
"s. c #0CA4F4",
"d. c #02A9F4",
"f. c #03A9F4",
"g. c #01A8F6",
"h. c #05A8F6",
"j. c #05A8F7",
"k. c #00A5F8",
"l. c #00A6F8",
"z. c #00A7F9",
"x. c #04A6F9",
"c. c #09A6F8",
"v. c #08A7F8",
"b. c #0AA7F9",
"n. c #0AA7FB",
"m. c #0CA7FB",
"M. c #01ABF8",
"N. c #03A8FA",
"B. c #02ACFB",
"V. c #00ACFC",
"C. c #00ACFD",
"Z. c #01ACFD",
"A. c #03ADFD",
"S. c #00AEFE",
"D. c #00AFFE",
"F. c #01AFFF",
"G. c #04ADFD",
"H. c #0AA8FB",
"J. c #08A9FC",
"K. c #0AA9FC",
"L. c #00B0FF",
/* pixels */
"} } W } ` } f.f.f.f 2 } j   9 2 0.j j j } B  .d '  .m.` } f.f.f.",
" .W W i.2  . .f.x `  .j j j   X.j j f.j #.B s  .m.  i.2  .W f.} ",
"} } 2 } } u.i.s.} } j j j j j 8 2 f.f.f. .i.} m.  + L. .6.i.a. .",
"} 2 } } & ' 2 n.W #.-.j c j f  .f.f.f.f.f.i. .+   L.L.L.2 m.) } ",
" . . .    +. .2 e 2 c j j   U / B f.f.f. . .E ~ L.L.L.L.D.m. . .",
" . .%   +.+   L.~ n.h v K w i.]  . .f.W V i  .C  .L.L.D.`  .i.} ",
" .W | +     L.L.L.x g.k U W y r L h.s. .'  .x.s 2 j L.B u.~ } { ",
"2 i.~ (   L.L.L.L.M.k.! f.x $.m./ W ` 2 i.u.W  .k.k.z.L i  .f. .",
"f. .L i a ` L.L.L.j j f.f.f.m.i. .L. .m.` ]  .#.j j G j x.f.f.f.",
"f.f.;.n.W j 2 L.j b f.f.f.f.f.i.L.L.L.  m.L ~ W j j j } f.f.f.f.",
"f. .` ` j 7.k.J.V c j f.f.f.} L.L.L.L.L.<.B 2 f.W #.2 ^  .f.f.f.",
" .`  .#.j j j v ;.m.k.} f.' ]  .L.L.L.      f.f.f.N 9.'  .} f. .",
" . .t.} j f.j i.B p ;.u.D m.2 } T L.  &   f.f.f.f.f.S C O.j.r.| ",
"} ;.i.} f.f.f.~ i. ._ & t 4.i.1.H.K.R & Y W f.f.f.    +.} 1 `  .",
"} } } f.f.f.f.f.i. .+ +.      2  .6 5 5.%.b. .f.& % +.+   L. .m.",
"} ' / W f.f.f.B m E n.  7 L. .n. .Q O c.$ L L w. .  + * L.L.L.} ",
"} i. .2  .f. .` 2  .B } L.L.L. .m.@ %.W   L.o v.I p.Z L.L.L.L.L.",
" .m.2 i.y.D } 2 } m 2 L.L.L.L.L.n.$ #   L.L.L.$ ,.s u i.L.L.D.B ",
" . .~ }   %   i.L  .' v L.L.L.i } :   L.L.L.L.L.c.h.W ~ j L.j ' ",
"} L.~ +.7 &   * 2 c.j j k.L.j C W R &   D.L.L.. L ~  .f.k.g.j c ",
"L.L.L. .+.%   R W ~  .C.k.z.L. .=.c.3     L.  & 1 ~ f.f.f.v #.m.",
"L.L.L.L.l.% n @.M $ s  .j L.L.L.+.v.; +.<.:.  ` } f.f.f.f.f.e.~ ",
"L.L.L.j j #. .0 2 } B B L.L.L.L.L.2.A #   & = &.N.' f.f.f.l } ~ ",
" .L.j v #.j j f.2 Z   4 1 L.L.L.  i.X . f.< ..F ` } j f.j ( i B ",
"m.J. .j j j f.f.f.  <.  $ 2 L.% &    .f.f.f.J o.B.7.#.>.v j B } ",
"B '  .m.k.f.f.f.f.f.Z   +.8.:.      f.f.f.f.f.j.~  .j c j i.Z } ",
"} } V B P ` f.d.f.  %   ` / ' Z +.%.` f.f.f.k.j L.L.A.k.[ -     ",
"} } } i.~ A i f.} %   T , i.} } Z } W } f.j c L.L.L.L.Z.+.      ",
"} i.} ` i.i.i.f.. Z > ` i.} 2 f.> i.i.u.*.j L.L.L.L.L.L.m.7 7   ",
"f.} i.} } } f.f.f.q.3.# . 2 f.f.f.} L q ( H -.M.L.L.L.} } }   } ",
"f.f.i. . .f.f.f.f.f.i. .} f.f.f.f.f.$.B G.m.j j L.L.[ ' 2 2 > } ",
"f.} } } ` } f.f.f.} } } `  .f.f.f.}  .} z g V.S.F.K. . .} } W  ."
};
